#!OML:ASF H:\GeneralSubjects\Female5\Project 1\Capture day 1\Session 1\Female5.ASF
:FULLY-SPECIFIED
:DEGREES
67
root -37.6768 16.2722 -2.26496 -168.363 -2.62472 -176.701
lowerback 4.44191 1.33038 3.41325
upperback -10.1997 1.44639 1.34973
thorax -13.5445 0.0453719 -0.562902
lowerneck -17.1631 -1.48247 -1.84987
upperneck 34.7272 -5.43831 2.3516
head 15.1083 -3.26081 0.0600884
rclavicle 1.51573e-014 -1.94809e-014
rhumerus -54.5266 25.0719 -95.4318
rradius 33.4388
rwrist -6.12979
rhand -24.2163 -16.5678
rfingers 7.12502
rthumb 2.26849 -46.5355
lclavicle 1.51573e-014 -1.94809e-014
lhumerus -47.2306 -0.521901 77.3861
lradius 29.5864
lwrist -0.156664
lhand -17.5249 22.6341
lfingers 7.12502
lthumb 8.72882 52.4337
rfemur -1.51446 22.5101 35.6156
rtibia -5.04912
rfoot -21.8046 -23.9426
rtoes -1.6083
lfemur 2.01376 -46.1599 -28.5813
ltibia -4.98571
lfoot -46.5342 -3.87331
ltoes -14.1848
68
root -37.6726 16.2704 -2.26904 -168.349 -2.61783 -176.733
lowerback 4.49895 1.33842 3.32915
upperback -10.2085 1.45197 1.34642
thorax -13.5925 0.0562854 -0.521146
lowerneck -17.1157 -1.53165 -2.01505
upperneck 34.7 -5.48442 2.42665
head 15.0938 -3.29272 0.113114
rclavicle 2.98177e-016 -3.598e-014
rhumerus -54.5678 25.0678 -95.4417
rradius 33.4939
rwrist -6.32647
rhand -24.2949 -16.5687
rfingers 7.12502
rthumb 2.19258 -46.5372
lclavicle 2.98177e-016 -3.598e-014
lhumerus -47.2332 -0.542228 77.4324
lradius 29.5479
lwrist -0.144993
lhand -17.6215 22.2448
lfingers 7.12502
lthumb 8.63562 52.0482
rfemur -1.94167 20.1158 35.408
rtibia -4.75498
rfoot -19.4702 -22.6004
rtoes -5.62884
lfemur 1.93704 -45.7468 -28.5561
ltibia -5.00043
lfoot -46.181 -4.02375
ltoes -14.0069
69
root -37.6706 16.2682 -2.27614 -168.39 -2.65662 -176.778
lowerback 4.51679 1.3064 3.2808
upperback -10.157 1.41103 1.31752
thorax -13.5439 0.0462209 -0.521498
lowerneck -17.1184 -1.58007 -2.26874
upperneck 34.6432 -5.59777 2.77828
head 15.0942 -3.32391 0.283851
rclavicle -5.73991e-015 3.97569e-015
rhumerus -54.5457 25.0671 -95.4342
rradius 33.5988
rwrist -6.24212
rhand -24.0257 -16.6647
rfingers 7.12502
rthumb 2.45252 -46.6303
lclavicle -5.73991e-015 3.97569e-015
lhumerus -47.1202 -0.424587 77.3052
lradius 29.4303
lwrist -0.309766
lhand -17.7136 22.1225
lfingers 7.12502
lthumb 8.5467 51.9295
rfemur -2.38203 18.5848 35.2339
rtibia -4.10952
rfoot -18.5414 -21.4069
rtoes -6.92315
lfemur 2.13599 -45.825 -28.7384
ltibia -5.11376
lfoot -46.3396 -4.41325
ltoes -13.587
70
root -37.6703 16.2648 -2.28471 -168.473 -2.6746 -177.007
lowerback 4.56499 1.25734 3.01739
upperback -10.0762 1.32674 1.22739
thorax -13.4836 0.0385573 -0.463965
lowerneck -17.1915 -1.58593 -2.35895
upperneck 34.6325 -5.68973 3.0822
head 15.1258 -3.33054 0.407912
rclavicle 6.23687e-015 1.43125e-014
rhumerus -54.4453 24.9094 -95.3581
rradius 33.6405
rwrist -6.02017
rhand -23.8969 -16.7356
rfingers 7.12502
rthumb 2.57691 -46.6998
lclavicle 6.23687e-015 1.43125e-014
lhumerus -47.0207 -0.403786 77.187
lradius 29.4014
lwrist -0.388172
lhand -17.9378 22.3456
lfingers 7.12502
lthumb 8.33034 52.1613
rfemur -2.10845 19.7935 35.1443
rtibia -4.05001
rfoot -20.139 -21.8714
rtoes -3.26996
lfemur 2.6264 -46.5865 -29.3733
ltibia -5.14257
lfoot -47.0855 -4.42198
ltoes -13.685
71
root -37.664 16.2583 -2.28955 -168.526 -2.65069 -177.3
lowerback 4.70013 1.24601 2.55744
upperback -10.0528 1.27199 1.16788
thorax -13.5501 0.0618625 -0.266955
lowerneck -17.1988 -1.54197 -2.10438
upperneck 34.6555 -5.6045 2.80944
head 15.1155 -3.29727 0.265541
rclavicle -5.36719e-015 2.94201e-014
rhumerus -54.3764 24.6347 -95.1445
rradius 33.6232
rwrist -5.73303
rhand -23.8797 -16.7096
rfingers 7.12502
rthumb 2.59352 -46.6735
lclavicle -5.36719e-015 2.94201e-014
lhumerus -47.0091 -0.465891 77.1786
lradius 29.4021
lwrist -0.419504
lhand -17.9205 21.9253
lfingers 7.12502
lthumb 8.34708 51.7404
rfemur -2.45273 17.5455 34.6587
rtibia -3.64568
rfoot -18.8845 -20.1065
rtoes -4.22238
lfemur 3.04027 -47.3079 -29.9997
ltibia -5.11407
lfoot -47.7192 -5.0748
ltoes -13.6766
72
root -37.6533 16.2523 -2.29142 -168.531 -2.59989 -177.307
lowerback 4.84375 1.27516 2.35994
upperback -10.0737 1.30062 1.21171
thorax -13.6708 0.0978802 -0.114257
lowerneck -17.1344 -1.56388 -1.94572
upperneck 34.6402 -5.52685 2.39553
head 15.0678 -3.29986 0.0824192
rclavicle -5.66536e-015 -1.92821e-014
rhumerus -54.4079 24.4698 -94.9405
rradius 33.6799
rwrist -5.54491
rhand -23.7964 -16.6339
rfingers 7.12502
rthumb 2.67395 -46.5968
lclavicle -5.66536e-015 -1.92821e-014
lhumerus -47.0064 -0.33085 77.1073
lradius 29.3561
lwrist -0.666342
lhand -17.6551 21.0727
lfingers 7.12502
lthumb 8.60317 50.8774
rfemur -3.02992 17.3295 34.6011
rtibia -2.56299
rfoot -19.693 -19.1027
rtoes -1.9802
lfemur 3.31106 -47.9489 -30.1472
ltibia -5.18862
lfoot -48.4958 -5.90555
ltoes -13.5045
73
root -37.6413 16.248 -2.29139 -168.504 -2.5139 -177.189
lowerback 4.93868 1.28023 2.38277
upperback -10.0616 1.31895 1.22291
thorax -13.716 0.106178 -0.119004
lowerneck -17.1881 -1.66887 -1.99658
upperneck 34.5734 -5.6119 2.30984
head 15.0493 -3.3469 0.041908
rclavicle -8.57259e-015 -1.82882e-014
rhumerus -54.2996 24.3484 -94.8386
rradius 33.6588
rwrist -5.40972
rhand -23.7341 -16.4062
rfingers 7.12502
rthumb 2.73415 -46.3684
lclavicle -8.57259e-015 -1.82882e-014
lhumerus -46.9511 -0.0381222 76.8702
lradius 29.3448
lwrist -0.996423
lhand -17.5974 20.8696
lfingers 7.12502
lthumb 8.65888 50.672
rfemur -3.59589 17.3646 34.7464
rtibia -1.52609
rfoot -20.3838 -18.3638
rtoes 0.151545
lfemur 3.54986 -48.5281 -30.0794
ltibia -5.39749
lfoot -49.3705 -5.96935
ltoes -13.8997
74
root -37.6252 16.2441 -2.2897 -168.467 -2.38156 -177.177
lowerback 4.98986 1.24517 2.21823
upperback -10.0074 1.26062 1.1809
thorax -13.6873 0.0989299 -0.0660988
lowerneck -17.2598 -1.66951 -2.0202
upperneck 34.4625 -5.68575 2.59999
head 15.0294 -3.33293 0.154502
rclavicle -4.24902e-015 3.77691e-015
rhumerus -54.0544 24.252 -94.8054
rradius 33.5936
rwrist -5.23916
rhand -23.626 -16.2817
rfingers 7.12502
rthumb 2.8386 -46.2426
lclavicle -4.24902e-015 3.77691e-015
lhumerus -46.9138 0.0340756 76.7329
lradius 29.4061
lwrist -1.10314
lhand -17.9982 21.5437
lfingers 7.12502
lthumb 8.27204 51.3617
rfemur -4.81924 13.406 34.4383
rtibia -0.0716433
rfoot -17.8426 -15.3081
rtoes -3.26238
lfemur 3.8031 -49.068 -30.0935
ltibia -5.71028
lfoot -50.0614 -6.84884
ltoes -13.6836
75
root -37.6093 16.2404 -2.28628 -168.466 -2.24036 -177.125
lowerback 5.10207 1.21547 1.99884
upperback -9.95368 1.20983 1.17285
thorax -13.6997 0.103235 0.0531069
lowerneck -17.1047 -1.57647 -1.84285
upperneck 34.2049 -5.63751 2.80919
head 14.8749 -3.25508 0.227703
rclavicle -3.16813e-015 -1.44119e-014
rhumerus -53.6731 23.8858 -94.4981
rradius 33.4008
rwrist -4.73783
rhand -23.4602 -16.1469
rfingers 7.12502
rthumb 2.99868 -46.1056
lclavicle -3.16813e-015 -1.44119e-014
lhumerus -46.9288 -0.134861 76.741
lradius 29.4813
lwrist -1.10398
lhand -18.4877 22.3533
lfingers 7.12502
lthumb 7.79967 52.1894
rfemur -6.09836 9.39461 34.2747
rtibia 1.71785
rfoot -15.3408 -12.3746
rtoes -9.66951
lfemur 4.11141 -49.5974 -30.1731
ltibia -5.92821
lfoot -50.8784 -7.49914
ltoes -12.9788
76
root -37.5932 16.2348 -2.28187 -168.5 -2.08781 -177.134
lowerback 5.30164 1.22266 1.47591
upperback -9.90251 1.18315 1.20988
thorax -13.7782 0.154697 0.386781
lowerneck -17.1556 -1.55833 -1.31277
upperneck 34.113 -5.67892 2.58563
head 14.8199 -3.22674 0.038221
rclavicle -9.0944e-015 -3.8763e-015
rhumerus -53.2378 23.3214 -93.9419
rradius 33.1108
rwrist -4.22869
rhand -23.4482 -15.7388
rfingers 7.12502
rthumb 3.01022 -45.6973
lclavicle -9.0944e-015 -3.8763e-015
lhumerus -46.9148 -0.100466 76.6792
lradius 29.5174
lwrist -1.29732
lhand -18.9716 22.7857
lfingers 7.12502
lthumb 7.33259 52.6387
rfemur -7.28889 5.94307 34.1382
rtibia 3.58259
rfoot -13.3915 -9.96483
rtoes -16.6706
lfemur 4.47317 -50.1318 -30.4464
ltibia -6.01524
lfoot -51.899 -7.86409
ltoes -12.2937
77
root -37.5651 16.2264 -2.26572 -168.368 -1.99075 -177.374
lowerback 5.49007 1.24037 0.135424
upperback -9.87008 1.07704 1.33522
thorax -13.896 0.260793 1.28987
lowerneck -17.5074 -1.67615 -0.373438
upperneck 34.0816 -5.88703 1.92648
head 14.8332 -3.26227 -0.435533
rclavicle 6.5102e-015 2.45499e-014
rhumerus -53.1387 23.2776 -93.6526
rradius 33.2767
rwrist -4.58956
rhand -23.7475 -15.5448
rfingers 7.12502
rthumb 2.72125 -45.5072
lclavicle 6.5102e-015 2.45499e-014
lhumerus -46.7427 0.324628 76.513
lradius 29.4467
lwrist -1.92691
lhand -19.1434 22.7363
lfingers 7.12502
lthumb 7.16672 52.5949
rfemur -8.82035 2.65535 33.8023
rtibia 5.83108
rfoot -12.8264 -6.83206
rtoes -16.2347
lfemur 4.25503 -50.755 -30.5085
ltibia -5.88683
lfoot -52.6223 -9.26097
ltoes -11.6746
78
root -37.5436 16.2214 -2.25392 -168.321 -1.807 -177.612
lowerback 5.70188 1.1047 0.600494
upperback -9.91613 0.909473 0.934482
thorax -14.0614 0.10566 0.616219
lowerneck -16.9385 -1.64891 -1.29894
upperneck 33.7174 -5.92733 3.01317
head 14.6141 -3.2708 0.178482
rclavicle -3.40108e-015 -1.6201e-014
rhumerus -53.4375 23.489 -94.2408
rradius 33.5895
rwrist -4.99485
rhand -24.0678 -15.6006
rfingers 7.12502
rthumb 2.41189 -45.5668
lclavicle -3.40108e-015 -1.6201e-014
lhumerus -47.0546 0.488401 75.8928
lradius 29.5562
lwrist -2.04038
lhand -19.1496 22.7824
lfingers 7.12502
lthumb 7.16075 52.6413
rfemur -10.3579 -0.281901 33.4473
rtibia 8.40641
rfoot -12.4909 -4.71788
rtoes -19.6313
lfemur 4.46748 -51.2972 -30.9149
ltibia -5.97463
lfoot -53.1472 -11.1556
ltoes -11.255
79
root -37.5187 16.2157 -2.2399 -168.254 -1.56417 -177.782
lowerback 5.94702 1.0264 0.665695
upperback -9.92958 0.790283 0.669423
thorax -14.2267 0.0263448 0.306702
lowerneck -16.6503 -1.63192 -1.91819
upperneck 33.3882 -6.03371 3.99851
head 14.466 -3.26995 0.676797
rclavicle 1.4679e-014 -1.11816e-015
rhumerus -53.5717 23.5239 -94.5244
rradius 33.8915
rwrist -5.09183
rhand -24.1725 -15.6051
rfingers 7.12502
rthumb 2.31077 -45.5723
lclavicle 1.4679e-014 -1.11816e-015
lhumerus -47.3096 0.27725 75.6335
lradius 29.6578
lwrist -2.22478
lhand -19.445 22.9953
lfingers 7.12502
lthumb 6.87562 52.8636
rfemur -12.0919 -2.94769 33.2717
rtibia 11.3007
rfoot -12.2891 -2.69585
rtoes -23.8814
lfemur 4.6894 -51.7774 -31.2406
ltibia -5.87884
lfoot -54.3831 -8.88123
ltoes -11.4781
80
root -37.4835 16.2088 -2.2218 -168.088 -1.2635 -177.879
lowerback 6.20824 1.0745 -0.315408
upperback -9.89826 0.750441 0.72443
thorax -14.3772 0.123174 0.92132
lowerneck -16.9853 -1.69186 -1.31774
upperneck 33.2616 -6.19704 3.82646
head 14.4653 -3.2624 0.472328
rclavicle 1.31695e-015 -1.98785e-016
rhumerus -53.5546 23.5362 -94.3333
rradius 34.2789
rwrist -5.20153
rhand -24.2209 -15.4767
rfingers 7.12502
rthumb 2.26405 -45.4444
lclavicle 1.31695e-015 -1.98785e-016
lhumerus -47.3236 -0.398846 76.103
lradius 29.6099
lwrist -2.8722
lhand -20.836 23.9888
lfingers 7.12502
lthumb 5.53269 53.8966
rfemur -13.9242 -4.2788 33.1019
rtibia 14.4099
rfoot -12.5378 -1.41828
rtoes -31.0775
lfemur 4.67582 -52.1819 -31.2187
ltibia -5.87965
lfoot -55.7228 -6.25754
ltoes -11.973
